<svg width="529" height="643" xmlns="http://www.w3.org/2000/svg" xmlns:xlink="http://www.w3.org/1999/xlink" overflow="hidden">
  <defs>
    <clipPath id="clip0">
      <path d="M0 0 529 0 529 643 0 643Z" fill-rule="evenodd" clip-rule="evenodd" />
    </clipPath>
  </defs>
  <g clip-path="url(#clip0)">
    <rect x="0" y="0" width="248" height="95.8951" fill="#FBE5D6" transform="matrix(1 0 -0 1.00109 141 44)" />
    <rect x="0" y="0" width="248" height="481.474" fill="#EDEDED" transform="matrix(1 0 -0 1.00109 141 140)" />
    <path d="M0.333236 6.6645 0.333326 89.3052-0.333131 89.3052-0.333221 6.6645ZM-3.99873 7.99748 0 0 3.99875 7.99748ZM3.99884 87.9723 0.000104954 95.9698-3.99864 87.9723Z" transform="matrix(1 0 -0 1.00109 72.5 44.5)" />
    <path d="M0.33323 6.66492 0.333332 474.945-0.333125 474.945-0.333227 6.66492ZM-3.99874 7.99748 0 0 3.99874 7.99748ZM3.99884 473.612 0.000104954 481.61-3.99864 473.612Z" transform="matrix(1 0 -0 1.00109 72.5 140.5)" />
    <text font-family="DengXian,DengXian_MSFontService,sans-serif" font-weight="400" font-size="16" transform="matrix(-1.83697e-16 -1.00219 0.998908 -1.83898e-16 63.3719 407)">子项总高度</text>
    <rect x="0" y="0" width="248" height="373.591" stroke="#BFBFBF" stroke-width="1.33291" stroke-miterlimit="8" fill="#F8CBAD" fill-opacity="0.168627" transform="matrix(1 0 -0 1.00109 141.5 141.5)" />
    <path d="M0 0 79.2408 0.000104954" stroke="#4472C4" stroke-width="0.666457" stroke-miterlimit="8" fill="none" fill-rule="evenodd" transform="matrix(-1 -8.74228e-08 -8.75184e-08 1.00109 140.741 140.5)" />
    <path d="M0 0 79.2408 0.000104954" stroke="#4472C4" stroke-width="0.666457" stroke-miterlimit="8" fill="none" fill-rule="evenodd" transform="matrix(-1 -8.74228e-08 -8.75184e-08 1.00109 140.741 44.5)" />
    <path d="M0 0 79.2408 0.000104954" stroke="#4472C4" stroke-width="0.666457" stroke-miterlimit="8" fill="none" fill-rule="evenodd" transform="matrix(-1 -8.74228e-08 -8.75184e-08 1.00109 139.741 619.5)" />
    <path d="M0.33323 6.6643 0.333331 365.097-0.333125 365.097-0.333226 6.6643ZM-3.99874 7.99748 0 0 3.99874 7.99748ZM3.99884 363.763 0.000104954 371.761-3.99864 363.763Z" transform="matrix(1 0 -0 1.00109 494.5 93.5)" />
    <text font-family="DengXian,DengXian_MSFontService,sans-serif" font-weight="400" font-size="16" transform="matrix(-1.83697e-16 -1.00219 0.998908 -1.83898e-16 486.558 349)">
      显示范围
      <tspan font-family="Calibri,Calibri_MSFontService,sans-serif" x="63.8603" y="1.17438e-14">(</tspan>
      <tspan x="68.8493" y="1.26612e-14">容器</tspan>
      <tspan x="100.779" y="1.85331e-14">高度</tspan>
      <tspan font-family="Calibri,Calibri_MSFontService,sans-serif" x="132.71" y="2.4405e-14">)</tspan>
    </text>
    <path d="M0 0 112.15 0.000104954" stroke="#4472C4" stroke-width="0.666457" stroke-miterlimit="8" fill="none" fill-rule="evenodd" transform="matrix(-1 -8.74228e-08 -8.75184e-08 1.00109 502.65 92.5)" />
    <path d="M0 0 119.005 0.000104954" stroke="#4472C4" stroke-width="0.666457" stroke-miterlimit="8" fill="none" fill-rule="evenodd" transform="matrix(-1 -8.74228e-08 -8.75184e-08 1.00109 509.505 466.5)" />
    <rect x="0" y="0" width="248" height="372.593" stroke="#BFBFBF" stroke-width="1.33291" stroke-miterlimit="8" fill="#F8CBAD" fill-opacity="0.168627" transform="matrix(1 0 -0 1.00109 141.5 92.5)" />
    <path d="M0.33323 6.6643 0.333331 365.097-0.333125 365.097-0.333226 6.6643ZM-3.99874 7.99748 0 0 3.99874 7.99748ZM3.99884 363.763 0.000104954 371.761-3.99864 363.763Z" transform="matrix(1 0 -0 1.00109 112.5 141.5)" />
    <text font-family="DengXian,DengXian_MSFontService,sans-serif" font-weight="400" font-size="16" transform="matrix(-1.83697e-16 -1.00219 0.998908 -1.83898e-16 102.372 387)">容器高度</text>
    <path d="M0 0 48.2178 0.000104954" stroke="#4472C4" stroke-width="0.666457" stroke-miterlimit="8" fill="none" fill-rule="evenodd" transform="matrix(-1 -8.74228e-08 -8.75184e-08 1.00109 141.718 514.5)" />
    <path d="M0 0 47.6709 0.000104954" stroke="#4472C4" stroke-width="0.666457" stroke-miterlimit="8" fill="none" fill-rule="evenodd" transform="matrix(-1 -8.74228e-08 -8.75184e-08 1.00109 141.171 91.5)" />
    <path d="M0.333243 6.66455 0.333319 41.3202-0.333138 41.3202-0.333214 6.66455ZM-3.99872 7.99749 0 0 3.99876 7.99747ZM3.99883 39.9873 0.000104954 47.9848-3.99865 39.9873Z" transform="matrix(1 0 -0 1.00109 112.5 44.5)" />
    <text font-family="DengXian,DengXian_MSFontService,sans-serif" font-weight="400" font-size="16" transform="matrix(-1.83697e-16 -1.00219 0.998908 -1.83898e-16 64.0128 141)">
      关联滚动高度
      <tspan x="-72.8406" y="350.792">关联滚动距离</tspan>
    </text>
    <path d="M0 0 70.8111 0.000104954" stroke="#4472C4" stroke-width="0.666457" stroke-miterlimit="8" fill="none" fill-rule="evenodd" transform="matrix(-1 -8.74228e-08 -8.75184e-08 1.00109 462.311 188.5)" />
    <path d="M0.333243 6.66455 0.333319 41.3202-0.333138 41.3202-0.333214 6.66455ZM-3.99872 7.99749 0 0 3.99876 7.99747ZM3.99883 39.9873 0.000104954 47.9848-3.99865 39.9873Z" transform="matrix(1 0 -0 1.00109 422.5 141.5)" />
    <path d="M0.333231 6.66459 0.333331 269.315-0.333126 269.315-0.333226 6.66459ZM-3.99874 7.99748 0 0 3.99874 7.99748ZM3.99884 267.982 0.000104954 275.98-3.99864 267.982Z" transform="matrix(1 0 -0 1.00109 458.5 189.5)" />
    <text font-family="DengXian,DengXian_MSFontService,sans-serif" font-weight="400" font-size="16" transform="matrix(-1.83697e-16 -1.00219 0.998908 -1.83898e-16 451.198 373)">滑块显示范围</text>
    <path d="M0 0 41.1765 0.674223" stroke="#4472C4" stroke-width="0.666457" stroke-miterlimit="8" fill="none" fill-rule="evenodd" transform="matrix(-1 -8.74228e-08 -8.75184e-08 1.00109 431.676 140.5)" />
    <path d="M0 0 36.7727 0.000104954" stroke="#4472C4" stroke-width="0.666457" stroke-miterlimit="8" fill="none" fill-rule="evenodd" transform="matrix(-1 -8.74228e-08 -8.75184e-08 1.00109 428.273 211.5)" />
    <path d="M0.333232 6.6646 0.333329 174.409-0.333127 174.409-0.333224 6.6646ZM-3.99874 7.99748 0 0 3.99874 7.99748ZM3.99884 173.077 0.000104954 181.074-3.99864 173.077Z" transform="matrix(1 0 -0 1.00109 423.5 211.5)" />
    <text font-family="DengXian,DengXian_MSFontService,sans-serif" font-weight="400" font-size="16" transform="matrix(-1.83697e-16 -1.00219 0.998908 -1.83898e-16 416.384 331)">滑块高度</text>
    <path d="M0 0 38.8417 0.000104954" stroke="#4472C4" stroke-width="0.666457" stroke-miterlimit="8" fill="none" fill-rule="evenodd" transform="matrix(-1 -8.74228e-08 8.75184e-08 -1.00109 428.342 391.5)" />
    <rect x="0" y="0" width="5" height="178.804" fill="#F4B183" transform="matrix(1 0 -0 1.00109 384 211)" />
    <path d="M0 0 247.408 144.493" stroke="#4472C4" stroke-width="0.666457" stroke-miterlimit="8" stroke-dasharray="5.33165 1.99937 0.666457 1.99937" stroke-opacity="0.501961" fill="none" fill-rule="evenodd" transform="matrix(1 0 -0 1.00109 141.5 44.5)" />
    <path d="M0 0 248.08 119.998" stroke="#4472C4" stroke-width="0.666457" stroke-miterlimit="8" stroke-dasharray="5.33165 1.99937 0.666457 1.99937" stroke-opacity="0.501961" fill="none" fill-rule="evenodd" transform="matrix(1 0 -0 1.00109 141.5 90.5)" />
    <path d="M0 0 247.533 74.3938" stroke="#4472C4" stroke-width="0.666457" stroke-miterlimit="8" stroke-dasharray="5.33165 1.99937 0.666457 1.99937" stroke-opacity="0.501961" fill="none" fill-rule="evenodd" transform="matrix(1 0 0 -1.00109 141.5 464.975)" />
    <path d="M0 0 249.142 153.823" stroke="#4472C4" stroke-width="0.666457" stroke-miterlimit="8" stroke-dasharray="5.33165 1.99937 0.666457 1.99937" stroke-opacity="0.501961" fill="none" fill-rule="evenodd" transform="matrix(1 0 0 -1.00109 140.5 621.491)" />
    <text font-family="DengXian,DengXian_MSFontService,sans-serif" font-weight="400" font-size="16" transform="matrix(-1.83697e-16 -1.00219 0.998908 -1.83898e-16 100.997 99)">滚动距离</text>
    <path d="M0.333236 6.6645 0.333326 89.3052-0.333131 89.3052-0.333221 6.6645ZM-3.99873 7.99748 0 0 3.99875 7.99748ZM3.99884 87.9723 0.000104954 95.9698-3.99864 87.9723Z" transform="matrix(1 0 -0 1.00109 458.5 92.5)" />
    <text font-family="DengXian,DengXian_MSFontService,sans-serif" font-weight="400" font-size="16" transform="matrix(-1.83697e-16 -1.00219 0.998908 -1.83898e-16 449.556 189)">关联滚动高度</text>
  </g>
</svg>